<?xml version="1.0" encoding="us-ascii" standalone="no"?><svg xmlns="http://www.w3.org/2000/svg" xmlns:xlink="http://www.w3.org/1999/xlink" contentStyleType="text/css" height="818px" preserveAspectRatio="none" style="width:1108px;height:818px;background:#FFFFFF;" version="1.1" viewBox="0 0 1108 818" width="1108px" zoomAndPan="magnify"><defs/><g><!--class HashNode--><g id="elem_HashNode"><rect codeLine="1" fill="#F1F1F1" height="113.1875" id="HashNode" rx="2.5" ry="2.5" style="stroke:#181818;stroke-width:0.5;" width="162" x="89" y="10"/><ellipse cx="119.75" cy="26" fill="#ADD1B2" rx="11" ry="11" style="stroke:#181818;stroke-width:1.0;"/><path d="M122.0938,21.6719 C121.1563,21.2344 120.5625,21.0938 119.6875,21.0938 C117.0625,21.0938 115.0625,23.1719 115.0625,25.8906 L115.0625,27.0156 C115.0625,29.5938 117.1719,31.4844 120.0625,31.4844 C121.2813,31.4844 122.4375,31.1875 123.1875,30.6406 C123.7656,30.2344 124.0938,29.7813 124.0938,29.3906 C124.0938,28.9375 123.7031,28.5469 123.2344,28.5469 C123.0156,28.5469 122.8125,28.625 122.625,28.8125 C122.1719,29.2969 122.1719,29.2969 121.9844,29.3906 C121.5625,29.6563 120.875,29.7813 120.1094,29.7813 C118.0625,29.7813 116.7656,28.6875 116.7656,26.9844 L116.7656,25.8906 C116.7656,24.1094 118.0156,22.7969 119.75,22.7969 C120.3281,22.7969 120.9375,22.9531 121.4063,23.2031 C121.8906,23.4844 122.0625,23.7031 122.1563,24.1094 C122.2188,24.5156 122.25,24.6406 122.3906,24.7656 C122.5313,24.9063 122.7656,25.0156 122.9844,25.0156 C123.25,25.0156 123.5156,24.875 123.6875,24.6563 C123.7969,24.5 123.8281,24.3125 123.8281,23.8906 L123.8281,22.4688 C123.8281,22.0313 123.8125,21.9063 123.7188,21.75 C123.5625,21.4844 123.2813,21.3438 122.9844,21.3438 C122.6875,21.3438 122.4844,21.4375 122.2656,21.75 L122.0938,21.6719 Z " fill="#000000"/><text fill="#000000" font-family="sans-serif" font-size="14" lengthAdjust="spacing" textLength="71" x="137.25" y="30.8467">HashNode</text><rect fill="#FFFFFF" height="15.9688" style="stroke:#181818;stroke-width:1.0;stroke-dasharray:2.0,2.0;" width="22" x="232" y="7"/><text fill="#000000" font-family="sans-serif" font-size="12" font-style="italic" lengthAdjust="spacing" textLength="20" x="233" y="19.1387">K,V</text><line style="stroke:#181818;stroke-width:0.5;" x1="90" x2="250" y1="42" y2="42"/><text fill="#000000" font-family="sans-serif" font-size="14" lengthAdjust="spacing" textLength="45" x="95" y="58.9951">key: K</text><text fill="#000000" font-family="sans-serif" font-size="14" lengthAdjust="spacing" textLength="56" x="95" y="75.292">value: V</text><text fill="#000000" font-family="sans-serif" font-size="14" lengthAdjust="spacing" textLength="126" x="95" y="91.5889">keyHashCode: int</text><text fill="#000000" font-family="sans-serif" font-size="14" lengthAdjust="spacing" textLength="150" x="95" y="107.8857">nextNode: HashNode</text><line style="stroke:#181818;stroke-width:0.5;" x1="90" x2="250" y1="115.1875" y2="115.1875"/></g><!--class Prime--><g id="elem_Prime"><rect codeLine="8" fill="#F1F1F1" height="80.5938" id="Prime" rx="2.5" ry="2.5" style="stroke:#181818;stroke-width:0.5;" width="211" x="286.5" y="26"/><ellipse cx="366.75" cy="42" fill="#ADD1B2" rx="11" ry="11" style="stroke:#181818;stroke-width:1.0;"/><path d="M369.0938,37.6719 C368.1563,37.2344 367.5625,37.0938 366.6875,37.0938 C364.0625,37.0938 362.0625,39.1719 362.0625,41.8906 L362.0625,43.0156 C362.0625,45.5938 364.1719,47.4844 367.0625,47.4844 C368.2813,47.4844 369.4375,47.1875 370.1875,46.6406 C370.7656,46.2344 371.0938,45.7813 371.0938,45.3906 C371.0938,44.9375 370.7031,44.5469 370.2344,44.5469 C370.0156,44.5469 369.8125,44.625 369.625,44.8125 C369.1719,45.2969 369.1719,45.2969 368.9844,45.3906 C368.5625,45.6563 367.875,45.7813 367.1094,45.7813 C365.0625,45.7813 363.7656,44.6875 363.7656,42.9844 L363.7656,41.8906 C363.7656,40.1094 365.0156,38.7969 366.75,38.7969 C367.3281,38.7969 367.9375,38.9531 368.4063,39.2031 C368.8906,39.4844 369.0625,39.7031 369.1563,40.1094 C369.2188,40.5156 369.25,40.6406 369.3906,40.7656 C369.5313,40.9063 369.7656,41.0156 369.9844,41.0156 C370.25,41.0156 370.5156,40.875 370.6875,40.6563 C370.7969,40.5 370.8281,40.3125 370.8281,39.8906 L370.8281,38.4688 C370.8281,38.0313 370.8125,37.9063 370.7188,37.75 C370.5625,37.4844 370.2813,37.3438 369.9844,37.3438 C369.6875,37.3438 369.4844,37.4375 369.2656,37.75 L369.0938,37.6719 Z " fill="#000000"/><text fill="#000000" font-family="sans-serif" font-size="14" lengthAdjust="spacing" textLength="42" x="387.25" y="46.8467">Prime</text><line style="stroke:#181818;stroke-width:0.5;" x1="287.5" x2="496.5" y1="58" y2="58"/><line style="stroke:#181818;stroke-width:0.5;" x1="287.5" x2="496.5" y1="66" y2="66"/><text fill="#000000" font-family="sans-serif" font-size="14" lengthAdjust="spacing" textLength="130" x="292.5" y="82.9951">isPrime(): boolean</text><text fill="#000000" font-family="sans-serif" font-size="14" lengthAdjust="spacing" textLength="199" x="292.5" y="99.292">nextPrime(number: int): int</text></g><!--class SymbolTable--><g id="elem_SymbolTable"><rect codeLine="13" fill="#F1F1F1" height="276.1563" id="SymbolTable" rx="2.5" ry="2.5" style="stroke:#181818;stroke-width:0.5;" width="548" x="7" y="183"/><ellipse cx="224.25" cy="199" fill="#ADD1B2" rx="11" ry="11" style="stroke:#181818;stroke-width:1.0;"/><path d="M226.5938,194.6719 C225.6563,194.2344 225.0625,194.0938 224.1875,194.0938 C221.5625,194.0938 219.5625,196.1719 219.5625,198.8906 L219.5625,200.0156 C219.5625,202.5938 221.6719,204.4844 224.5625,204.4844 C225.7813,204.4844 226.9375,204.1875 227.6875,203.6406 C228.2656,203.2344 228.5938,202.7813 228.5938,202.3906 C228.5938,201.9375 228.2031,201.5469 227.7344,201.5469 C227.5156,201.5469 227.3125,201.625 227.125,201.8125 C226.6719,202.2969 226.6719,202.2969 226.4844,202.3906 C226.0625,202.6563 225.375,202.7813 224.6094,202.7813 C222.5625,202.7813 221.2656,201.6875 221.2656,199.9844 L221.2656,198.8906 C221.2656,197.1094 222.5156,195.7969 224.25,195.7969 C224.8281,195.7969 225.4375,195.9531 225.9063,196.2031 C226.3906,196.4844 226.5625,196.7031 226.6563,197.1094 C226.7188,197.5156 226.75,197.6406 226.8906,197.7656 C227.0313,197.9063 227.2656,198.0156 227.4844,198.0156 C227.75,198.0156 228.0156,197.875 228.1875,197.6563 C228.2969,197.5 228.3281,197.3125 228.3281,196.8906 L228.3281,195.4688 C228.3281,195.0313 228.3125,194.9063 228.2188,194.75 C228.0625,194.4844 227.7813,194.3438 227.4844,194.3438 C227.1875,194.3438 226.9844,194.4375 226.7656,194.75 L226.5938,194.6719 Z " fill="#000000"/><text fill="#000000" font-family="sans-serif" font-size="14" lengthAdjust="spacing" textLength="94" x="244.75" y="203.8467">SymbolTable</text><rect fill="#FFFFFF" height="15.9688" style="stroke:#181818;stroke-width:1.0;stroke-dasharray:2.0,2.0;" width="9" x="549" y="180"/><text fill="#000000" font-family="sans-serif" font-size="12" font-style="italic" lengthAdjust="spacing" textLength="7" x="550" y="192.1387">T</text><line style="stroke:#181818;stroke-width:0.5;" x1="8" x2="554" y1="215" y2="215"/><rect fill="none" height="6" style="stroke:#C82930;stroke-width:1.0;" width="6" x="15" y="225.6484"/><text fill="#000000" font-family="sans-serif" font-size="14" lengthAdjust="spacing" textLength="310" x="27" y="231.9951">bucketArray: ArrayList&lt;HashNode&lt;T,int&gt;&gt;</text><rect fill="none" height="6" style="stroke:#C82930;stroke-width:1.0;" width="6" x="15" y="241.9453"/><text fill="#000000" font-family="sans-serif" font-size="14" lengthAdjust="spacing" textLength="160" x="27" y="248.292">nubmerOfBuckets: int</text><rect fill="none" height="6" style="stroke:#C82930;stroke-width:1.0;" width="6" x="15" y="258.2422"/><text fill="#000000" font-family="sans-serif" font-size="14" lengthAdjust="spacing" textLength="170" x="27" y="264.5889">numberOfElements: int</text><line style="stroke:#181818;stroke-width:0.5;" x1="8" x2="554" y1="271.8906" y2="271.8906"/><ellipse cx="18" cy="285.5391" fill="#84BE84" rx="3" ry="3" style="stroke:#038048;stroke-width:1.0;"/><text fill="#000000" font-family="sans-serif" font-size="14" lengthAdjust="spacing" textLength="109" x="27" y="288.8857">add(key: T): int</text><ellipse cx="18" cy="301.8359" fill="#84BE84" rx="3" ry="3" style="stroke:#038048;stroke-width:1.0;"/><text fill="#000000" font-family="sans-serif" font-size="14" lengthAdjust="spacing" textLength="128" x="27" y="305.1826">remove(key: T): V</text><ellipse cx="18" cy="318.1328" fill="#84BE84" rx="3" ry="3" style="stroke:#038048;stroke-width:1.0;"/><text fill="#000000" font-family="sans-serif" font-size="14" lengthAdjust="spacing" textLength="98" x="27" y="321.4795">get(key: T): V</text><ellipse cx="18" cy="334.4297" fill="#84BE84" rx="3" ry="3" style="stroke:#038048;stroke-width:1.0;"/><text fill="#000000" font-family="sans-serif" font-size="14" lengthAdjust="spacing" textLength="67" x="27" y="337.7764">size(): int</text><ellipse cx="18" cy="350.7266" fill="#84BE84" rx="3" ry="3" style="stroke:#038048;stroke-width:1.0;"/><text fill="#000000" font-family="sans-serif" font-size="14" lengthAdjust="spacing" textLength="136" x="27" y="354.0732">isEmpty(): boolean</text><ellipse cx="18" cy="367.0234" fill="#84BE84" rx="3" ry="3" style="stroke:#038048;stroke-width:1.0;"/><text fill="#000000" font-family="sans-serif" font-size="14" lengthAdjust="spacing" textLength="123" x="27" y="370.3701">toString(): String</text><text fill="#000000" font-family="sans-serif" font-size="14" lengthAdjust="spacing" textLength="4" x="27" y="386.667">&#160;</text><rect fill="#F24D5C" height="6" style="stroke:#C82930;stroke-width:1.0;" width="6" x="15" y="396.6172"/><text fill="#000000" font-family="sans-serif" font-size="14" lengthAdjust="spacing" textLength="92" x="27" y="402.9639">resize(): void</text><rect fill="#F24D5C" height="6" style="stroke:#C82930;stroke-width:1.0;" width="6" x="15" y="412.9141"/><text fill="#000000" font-family="sans-serif" font-size="14" lengthAdjust="spacing" textLength="522" x="27" y="419.2607">elementIsEqualToNode(node: HashNode&lt;T,V&gt;, key: T, keyHashCode: int)</text><rect fill="#F24D5C" height="6" style="stroke:#C82930;stroke-width:1.0;" width="6" x="15" y="429.2109"/><text fill="#000000" font-family="sans-serif" font-size="14" lengthAdjust="spacing" textLength="169" x="27" y="435.5576">getBucketIndex(key: T)</text><rect fill="#F24D5C" height="6" style="stroke:#C82930;stroke-width:1.0;" width="6" x="15" y="445.5078"/><text fill="#000000" font-family="sans-serif" font-size="14" lengthAdjust="spacing" textLength="124" x="27" y="451.8545">hashCode(key: T)</text></g><!--class PIF--><g id="elem_PIF"><rect codeLine="32" fill="#F1F1F1" height="113.1875" id="PIF" rx="2.5" ry="2.5" style="stroke:#181818;stroke-width:0.5;" width="511" x="590.5" y="264.5"/><ellipse cx="831.25" cy="280.5" fill="#ADD1B2" rx="11" ry="11" style="stroke:#181818;stroke-width:1.0;"/><path d="M833.5938,276.1719 C832.6563,275.7344 832.0625,275.5938 831.1875,275.5938 C828.5625,275.5938 826.5625,277.6719 826.5625,280.3906 L826.5625,281.5156 C826.5625,284.0938 828.6719,285.9844 831.5625,285.9844 C832.7813,285.9844 833.9375,285.6875 834.6875,285.1406 C835.2656,284.7344 835.5938,284.2813 835.5938,283.8906 C835.5938,283.4375 835.2031,283.0469 834.7344,283.0469 C834.5156,283.0469 834.3125,283.125 834.125,283.3125 C833.6719,283.7969 833.6719,283.7969 833.4844,283.8906 C833.0625,284.1563 832.375,284.2813 831.6094,284.2813 C829.5625,284.2813 828.2656,283.1875 828.2656,281.4844 L828.2656,280.3906 C828.2656,278.6094 829.5156,277.2969 831.25,277.2969 C831.8281,277.2969 832.4375,277.4531 832.9063,277.7031 C833.3906,277.9844 833.5625,278.2031 833.6563,278.6094 C833.7188,279.0156 833.75,279.1406 833.8906,279.2656 C834.0313,279.4063 834.2656,279.5156 834.4844,279.5156 C834.75,279.5156 835.0156,279.375 835.1875,279.1563 C835.2969,279 835.3281,278.8125 835.3281,278.3906 L835.3281,276.9688 C835.3281,276.5313 835.3125,276.4063 835.2188,276.25 C835.0625,275.9844 834.7813,275.8438 834.4844,275.8438 C834.1875,275.8438 833.9844,275.9375 833.7656,276.25 L833.5938,276.1719 Z " fill="#000000"/><text fill="#000000" font-family="sans-serif" font-size="14" lengthAdjust="spacing" textLength="21" x="851.75" y="285.3467">PIF</text><line style="stroke:#181818;stroke-width:0.5;" x1="591.5" x2="1100.5" y1="296.5" y2="296.5"/><rect fill="none" height="6" style="stroke:#C82930;stroke-width:1.0;" width="6" x="598.5" y="307.1484"/><text fill="#000000" font-family="sans-serif" font-size="14" lengthAdjust="spacing" textLength="239" x="610.5" y="313.4951">data: List&lt;Pair&lt;String,Integer&gt;&gt;</text><line style="stroke:#181818;stroke-width:0.5;" x1="591.5" x2="1100.5" y1="320.7969" y2="320.7969"/><ellipse cx="601.5" cy="334.4453" fill="#84BE84" rx="3" ry="3" style="stroke:#038048;stroke-width:1.0;"/><text fill="#000000" font-family="sans-serif" font-size="14" lengthAdjust="spacing" textLength="485" x="610.5" y="337.792">addIdentifierOrConstant(token: String, positionInSymbolTable: int)</text><ellipse cx="601.5" cy="350.7422" fill="#84BE84" rx="3" ry="3" style="stroke:#038048;stroke-width:1.0;"/><text fill="#000000" font-family="sans-serif" font-size="14" lengthAdjust="spacing" textLength="375" x="610.5" y="354.0889">addOperatorSeparatorReservedWord(token: String)</text><ellipse cx="601.5" cy="367.0391" fill="#84BE84" rx="3" ry="3" style="stroke:#038048;stroke-width:1.0;"/><text fill="#000000" font-family="sans-serif" font-size="14" lengthAdjust="spacing" textLength="123" x="610.5" y="370.3857">toString(): String</text></g><!--class Scanner--><g id="elem_Scanner"><rect codeLine="41" fill="#F1F1F1" height="292.4531" id="Scanner" rx="2.5" ry="2.5" style="stroke:#181818;stroke-width:0.5;" width="406" x="360" y="519"/><ellipse cx="529.75" cy="535" fill="#ADD1B2" rx="11" ry="11" style="stroke:#181818;stroke-width:1.0;"/><path d="M532.0938,530.6719 C531.1563,530.2344 530.5625,530.0938 529.6875,530.0938 C527.0625,530.0938 525.0625,532.1719 525.0625,534.8906 L525.0625,536.0156 C525.0625,538.5938 527.1719,540.4844 530.0625,540.4844 C531.2813,540.4844 532.4375,540.1875 533.1875,539.6406 C533.7656,539.2344 534.0938,538.7813 534.0938,538.3906 C534.0938,537.9375 533.7031,537.5469 533.2344,537.5469 C533.0156,537.5469 532.8125,537.625 532.625,537.8125 C532.1719,538.2969 532.1719,538.2969 531.9844,538.3906 C531.5625,538.6563 530.875,538.7813 530.1094,538.7813 C528.0625,538.7813 526.7656,537.6875 526.7656,535.9844 L526.7656,534.8906 C526.7656,533.1094 528.0156,531.7969 529.75,531.7969 C530.3281,531.7969 530.9375,531.9531 531.4063,532.2031 C531.8906,532.4844 532.0625,532.7031 532.1563,533.1094 C532.2188,533.5156 532.25,533.6406 532.3906,533.7656 C532.5313,533.9063 532.7656,534.0156 532.9844,534.0156 C533.25,534.0156 533.5156,533.875 533.6875,533.6563 C533.7969,533.5 533.8281,533.3125 533.8281,532.8906 L533.8281,531.4688 C533.8281,531.0313 533.8125,530.9063 533.7188,530.75 C533.5625,530.4844 533.2813,530.3438 532.9844,530.3438 C532.6875,530.3438 532.4844,530.4375 532.2656,530.75 L532.0938,530.6719 Z " fill="#000000"/><text fill="#000000" font-family="sans-serif" font-size="14" lengthAdjust="spacing" textLength="58" x="550.25" y="539.8467">Scanner</text><line style="stroke:#181818;stroke-width:0.5;" x1="361" x2="765" y1="551" y2="551"/><text fill="#000000" font-family="sans-serif" font-size="14" lengthAdjust="spacing" textLength="178" x="380" y="567.9951">separators: List&lt;String&gt;</text><text fill="#000000" font-family="sans-serif" font-size="14" lengthAdjust="spacing" textLength="172" x="380" y="584.292">operators: List&lt;String&gt;</text><text fill="#000000" font-family="sans-serif" font-size="14" lengthAdjust="spacing" textLength="209" x="380" y="600.5889">reservedWords: List&lt;String&gt;</text><text fill="#000000" font-family="sans-serif" font-size="14" lengthAdjust="spacing" textLength="4" x="380" y="616.8857">&#160;</text><rect fill="none" height="6" style="stroke:#C82930;stroke-width:1.0;" width="6" x="368" y="626.8359"/><text fill="#000000" font-family="sans-serif" font-size="14" lengthAdjust="spacing" textLength="50" x="380" y="633.1826">pif: PIF</text><rect fill="none" height="6" style="stroke:#C82930;stroke-width:1.0;" width="6" x="368" y="643.1328"/><text fill="#000000" font-family="sans-serif" font-size="14" lengthAdjust="spacing" textLength="261" x="380" y="649.4795">symbolTable: SymbolTable&lt;String&gt;</text><rect fill="none" height="6" style="stroke:#C82930;stroke-width:1.0;" width="6" x="368" y="659.4297"/><text fill="#000000" font-family="sans-serif" font-size="14" lengthAdjust="spacing" textLength="200" x="380" y="665.7764">programLines: List&lt;String&gt;</text><line style="stroke:#181818;stroke-width:0.5;" x1="361" x2="765" y1="673.0781" y2="673.0781"/><ellipse cx="371" cy="686.7266" fill="#84BE84" rx="3" ry="3" style="stroke:#038048;stroke-width:1.0;"/><text fill="#000000" font-family="sans-serif" font-size="14" lengthAdjust="spacing" textLength="283" x="380" y="690.0732">Scanner(programPath: String): Scanner</text><ellipse cx="371" cy="703.0234" fill="#84BE84" rx="3" ry="3" style="stroke:#038048;stroke-width:1.0;"/><text fill="#000000" font-family="sans-serif" font-size="14" lengthAdjust="spacing" textLength="81" x="380" y="706.3701">scan(): void</text><text fill="#000000" font-family="sans-serif" font-size="14" lengthAdjust="spacing" textLength="4" x="380" y="722.667">&#160;</text><rect fill="#F24D5C" height="6" style="stroke:#C82930;stroke-width:1.0;" width="6" x="368" y="732.6172"/><text fill="#000000" font-family="sans-serif" font-size="14" lengthAdjust="spacing" textLength="251" x="380" y="738.9639">isIdentifier(token: String): boolean</text><rect fill="#F24D5C" height="6" style="stroke:#C82930;stroke-width:1.0;" width="6" x="368" y="748.9141"/><text fill="#000000" font-family="sans-serif" font-size="14" lengthAdjust="spacing" textLength="346" x="380" y="755.2607">skipComment(tokenizer: StringTokenizer): void</text><rect fill="#F24D5C" height="6" style="stroke:#C82930;stroke-width:1.0;" width="6" x="368" y="765.2109"/><text fill="#000000" font-family="sans-serif" font-size="14" lengthAdjust="spacing" textLength="380" x="380" y="771.5576">addStringConstant(tokenizer: StringTokenizer): void</text><rect fill="#F24D5C" height="6" style="stroke:#C82930;stroke-width:1.0;" width="6" x="368" y="781.5078"/><text fill="#000000" font-family="sans-serif" font-size="14" lengthAdjust="spacing" textLength="303" x="380" y="787.8545">isIntegerConstant(token: String): boolean</text><rect fill="#F24D5C" height="6" style="stroke:#C82930;stroke-width:1.0;" width="6" x="368" y="797.8047"/><text fill="#000000" font-family="sans-serif" font-size="14" lengthAdjust="spacing" textLength="148" x="380" y="804.1514">outputToFIles(): void</text></g><!--reverse link HashNode to SymbolTable--><g id="link_HashNode_SymbolTable"><path codeLine="63" d="M199.3264,134.2103 C207.1794,152.0733 211.422,161.725 220.674,182.772 " fill="none" id="HashNode-backto-SymbolTable" style="stroke:#181818;stroke-width:1.0;"/><polygon fill="none" points="194.497,123.225,193.2499,130.3275,199.3264,134.2103,200.5735,127.1079,194.497,123.225" style="stroke:#181818;stroke-width:1.0;"/></g><!--reverse link Prime to SymbolTable--><g id="link_Prime_SymbolTable"><path codeLine="64" d="M369.705,118.2165 C360.517,139.1185 353.477,155.13 341.298,182.835 " fill="none" id="Prime-backto-SymbolTable" style="stroke:#181818;stroke-width:1.0;"/><polygon fill="none" points="374.534,107.231,368.4577,111.1141,369.705,118.2165,375.7814,114.3334,374.534,107.231" style="stroke:#181818;stroke-width:1.0;"/></g><!--reverse link PIF to Scanner--><g id="link_PIF_Scanner"><path codeLine="65" d="M792.2508,386.9543 C760.5348,425.2833 724.499,468.831 683.273,518.652 " fill="none" id="PIF-backto-Scanner" style="stroke:#181818;stroke-width:1.0;"/><polygon fill="none" points="799.901,377.709,792.9942,379.7816,792.2508,386.9543,799.1577,384.8817,799.901,377.709" style="stroke:#181818;stroke-width:1.0;"/></g><!--reverse link SymbolTable to Scanner--><g id="link_SymbolTable_Scanner"><path codeLine="66" d="M401.7094,468.3923 C417.9524,488.0903 427.075,499.155 443.439,519 " fill="none" id="SymbolTable-backto-Scanner" style="stroke:#181818;stroke-width:1.0;"/><polygon fill="none" points="394.075,459.134,394.8061,466.3079,401.7094,468.3923,400.9783,461.2183,394.075,459.134" style="stroke:#181818;stroke-width:1.0;"/></g><!--SRC=[XLJHZjem47pFL_WnKP8VY11IYq2DxdIW4j5dXonWaTYfxQ2ZLV-zQpiEpd5L9IJCx7eyCxlYs5Abo3UgBc-YWSLBTbZ-ZWYvmhqWBtYuqNQ0WXmSPlfMs5SGnZL27Dxrc_tj6Q8_KNIqd3l9EZ1SJDbZd1Ia5g85oiUR3kP3LuEqZ8dZdIZszwuMRKNh5XQLrPNNm_4A-ekK50NQhrUcz68oK6N8i5oQLZxK7SZjwQkzehpct3suFQrRw80_2lX9QTF4rdkLU3YLq8aRF62JHNe6_G5Hx9VrEDvYQjtr-ZvtdMgnrvBniu7ToJsSI_3tRu8r1W4dhrJhdmDjAs7inNmMDhezB3Cth2fx6b1YQ52e2w3a3RnxpQPo6Ni3B9XUkR5vDrJJWjYCTvJ9XHETbLp36IG6FQPMDgYLdHW6ArU2AqsvZhMu0lT6Cz8BnJGJlEJ1O2UbXcNRWwHQo3tqr1w-Wm9vW-Q7aCsSBlbtd8_zELBEGQ8HvGdLQCPruvw8yScdWWoUVYf69E_PgJ0nuL65TiAbdVhpNegpfDqhu_096Kb7gV7OjwFwCZajl17RgV3ys1EaPkeH_eUCWjtBrPNrAz6PdN9Tk6_ITrOUc8Xp78UhpSVvdriengt6vqimKoG6tG-w4fko1JLPmeqo4_GxJaIUXvb6zb_Z6Iqt3dD9HK4jnFy2]--></g></svg>